<?xml version="1.0" encoding="UTF-8"?>
<svg id="Capa_1" data-name="Capa 1" xmlns="http://www.w3.org/2000/svg" viewBox="0 0 600 200">
  <defs>
    <style>
      .cls-1 {
        fill: #fff;
      }

      .cls-2 {
        fill: #eda381;
      }
    </style>
  </defs>
  <path class="cls-2" d="m282.07,93.51c-3.58-2.79-74.08-29.07-50.98-61.74,23.09-32.65,58.14,52.57,58.14,52.57,0,0-32.07-82.64,5.38-80.26s5.57,81.25,5.57,81.25c0,0,29.88-80.86,57.35-54.96,27.48,25.89-37.84,56.55-48.59,62.53,0,0,74.08-34.25,75.67,4.78,1.59,39.03-60.15,13.94-76.47,7.57,0,0,82.45,33.46,48.59,64.12,0,0-29.07,22.7-55.37-56.96,0,0,24.69,77.67,0,82.04-24.69,4.38-35.44-17.92-11.55-82.45,0,0-23.9,71.3-53.36,58.95-29.47-12.35-6.37-46.6,46.99-64.52,0,0-82.84,33.46-78.07-9.16,4.78-42.62,76.68-3.79,76.68-3.79h.01Z"/>
  <circle class="cls-1" cx="291.62" cy="99.58" r="16.57"/>
</svg>