<?xml version="1.0" encoding="UTF-8"?>
<svg id="Capa_1" data-name="Capa 1" xmlns="http://www.w3.org/2000/svg" viewBox="0 0 600 200">
  <defs>
    <style>
      .cls-1 {
        fill: #fff;
      }

      .cls-2 {
        fill: #eda381;
      }
    </style>
  </defs>
  <path class="cls-2" d="m91.51,95.24c-2.81-2.19-58.12-22.81-40-48.44,18.12-25.62,45.62,41.25,45.62,41.25,0,0-25.16-64.84,4.22-62.97s4.37,63.75,4.37,63.75c0,0,23.44-63.44,45-43.12,21.56,20.31-29.69,44.37-38.12,49.06,0,0,58.12-26.87,59.37,3.75s-47.19,10.94-60,5.94c0,0,64.69,26.25,38.12,50.31,0,0-22.81,17.81-43.44-44.69,0,0,19.37,60.94,0,64.37-19.37,3.44-27.81-14.06-9.06-64.69,0,0-18.75,55.94-41.87,46.25-23.12-9.69-5-36.56,36.87-50.62,0,0-65,26.25-61.25-7.19,3.75-33.44,60.16-2.97,60.16-2.97Z"/>
  <circle class="cls-1" cx="99" cy="100" r="13"/>
  <g>
    <path class="cls-2" d="m183.9,133.94v-6.27c1.46-.06,2.67-.25,3.66-.57.98-.32,1.74-1.04,2.28-2.18.54-1.14.81-2.98.81-5.51v-36.38c0-1.71.05-3.36.14-4.94.09-1.58.17-2.79.24-3.61-1.01.06-2.28.11-3.8.14-1.52.03-2.63.08-3.33.14v-7.31h47.5l.57,18.43h-6.27c0-3.48-.6-6.11-1.8-7.89-1.2-1.77-2.69-2.96-4.47-3.56-1.77-.6-3.51-.87-5.22-.81l-3.42.1c-1.33,0-2.47.18-3.42.52-.95.35-1.68,1.11-2.19,2.28-.51,1.17-.76,2.99-.76,5.46v16.53h9.79l-.38-8.17h7.32v23.08h-6.27c0-2.66-.41-4.59-1.24-5.79-.82-1.2-1.95-1.95-3.37-2.23-1.42-.29-2.99-.39-4.7-.33h-1.14v13.3c0,1.71-.03,3.36-.1,4.94-.06,1.58-.16,2.79-.28,3.61.7-.06,1.61-.11,2.75-.14,1.14-.03,2.26-.06,3.37-.1,1.11-.03,1.88-.05,2.33-.05v7.31h-28.6Z"/>
    <path class="cls-2" d="m238.14,133.94v-6.27c1.46-.06,2.67-.25,3.66-.57.98-.32,1.74-1.04,2.28-2.18.54-1.14.81-2.98.81-5.51v-36.38c0-1.71.05-3.36.14-4.94.09-1.58.17-2.79.24-3.61-1.01.06-2.28.11-3.8.14-1.52.03-2.63.08-3.33.14v-7.31h27.27v6.27c-1.39.06-2.6.25-3.61.57-1.01.32-1.79,1.03-2.33,2.14-.54,1.11-.81,2.96-.81,5.56v36.38c0,1.71-.03,3.33-.1,4.85-.06,1.52-.16,2.69-.28,3.51h12.73c3.74,0,6.66-1.3,8.79-3.9,2.12-2.6,3.18-6.49,3.18-11.68h6.37l-.57,22.8h-50.63Z"/>
    <path class="cls-2" d="m327.16,135.46c-6.02,0-11.13-1.01-15.34-3.04s-7.62-4.73-10.21-8.12c-2.6-3.39-4.5-7.14-5.7-11.26-1.2-4.12-1.8-8.23-1.8-12.35s.68-8.03,2.04-12.11c1.36-4.08,3.42-7.84,6.17-11.26s6.22-6.17,10.4-8.26,9.09-3.14,14.73-3.14,10.73,1.04,14.91,3.14c4.18,2.09,7.6,4.86,10.26,8.31,2.66,3.45,4.64,7.21,5.94,11.26,1.3,4.05,1.95,8.07,1.95,12.06s-.68,7.92-2.04,11.97c-1.36,4.05-3.42,7.81-6.18,11.26-2.75,3.45-6.22,6.24-10.4,8.36s-9.09,3.18-14.72,3.18Zm1.04-6.93c3.29,0,6.05-.81,8.26-2.42,2.22-1.62,3.99-3.72,5.32-6.32,1.33-2.6,2.28-5.43,2.85-8.5.57-3.07.85-6.06.85-8.98,0-4.37-.38-8.36-1.14-11.97-.76-3.61-1.93-6.73-3.52-9.36-1.58-2.63-3.6-4.66-6.03-6.08-2.44-1.42-5.31-2.1-8.6-2.04-3.23.06-5.95.94-8.17,2.61-2.22,1.68-3.99,3.83-5.32,6.46-1.33,2.63-2.28,5.5-2.85,8.6-.57,3.1-.85,6.11-.85,9.02s.33,6.14,1,9.5c.67,3.36,1.73,6.52,3.18,9.5,1.46,2.98,3.42,5.38,5.89,7.22,2.47,1.84,5.51,2.76,9.12,2.76Z"/>
    <path class="cls-2" d="m368.58,133.94v-6.27c1.46-.06,2.67-.25,3.66-.57.98-.32,1.74-1.04,2.28-2.18.54-1.14.81-2.98.81-5.51v-36.38c0-1.71.05-3.36.14-4.94.1-1.58.17-2.79.24-3.61-1.01.06-2.28.11-3.8.14-1.52.03-2.63.08-3.32.14v-7.31c4.5-.06,8.99-.1,13.49-.1s8.99-.03,13.49-.09c5.57-.06,10.42.57,14.54,1.9,4.12,1.33,7.28,3.48,9.5,6.46,2.22,2.98,3.26,7,3.13,12.06-.06,2.66-.71,5.19-1.95,7.6-1.24,2.41-3.07,4.53-5.51,6.37s-5.53,3.29-9.26,4.37c1.2.51,2.39,1.33,3.56,2.47,1.17,1.14,2.17,2.34,2.99,3.61l4.46,6.65c1.39,2.15,2.63,3.86,3.71,5.13,1.08,1.27,2.15,2.2,3.23,2.8,1.08.6,2.31.94,3.71,1v6.27h-15.68c-1.14-.82-2.26-2.01-3.37-3.56-1.11-1.55-2.3-3.34-3.56-5.37l-7.03-11.4c-.82-1.27-1.54-2.34-2.14-3.23-.6-.89-1.22-1.65-1.85-2.28h-4.94v10.17c0,1.77-.03,3.45-.1,5.03-.06,1.58-.16,2.79-.28,3.61.7-.06,1.58-.11,2.66-.14,1.08-.03,2.14-.06,3.18-.1,1.04-.03,1.79-.05,2.23-.05v7.31h-28.21Zm25.08-32.68c3.54,0,6.4-.52,8.55-1.57,2.15-1.04,3.72-2.63,4.7-4.75.98-2.12,1.47-4.8,1.47-8.03,0-3.04-.47-5.43-1.43-7.17-.95-1.74-2.14-3.04-3.56-3.9-1.42-.85-2.87-1.39-4.32-1.62-1.46-.22-2.66-.33-3.61-.33-1.33,0-2.47.16-3.42.48-.95.32-1.68,1.01-2.19,2.09-.51,1.08-.76,2.72-.76,4.94v19.48c.7.06,1.42.14,2.19.24.76.1,1.55.14,2.38.14Z"/>
    <path class="cls-2" d="m429.38,133.94v-6.55c1.77,0,3.2-.51,4.27-1.52,1.08-1.01,1.98-2.34,2.71-3.99.73-1.65,1.44-3.42,2.14-5.32l18.53-50.82h6.65l20.23,51.77c.38.95.89,2.39,1.52,4.32.63,1.93,1.01,3.62,1.14,5.08,1.08-.13,2.11-.21,3.09-.24.98-.03,1.79-.05,2.42-.05v7.31h-25.55v-6.27c1.77,0,2.99-.36,3.66-1.09.66-.73.96-1.73.9-2.99-.06-1.27-.41-2.69-1.04-4.27l-1.9-5.23-20.62.38-1.52,4.46c-.32.82-.78,2.04-1.38,3.66-.6,1.62-1.16,2.96-1.66,4.04,1.01-.13,2.23-.21,3.66-.24,1.42-.03,2.45-.05,3.09-.05v7.6h-20.33Zm20.52-26.6h15.87l-4.37-11.88c-.82-2.28-1.55-4.57-2.18-6.89-.63-2.31-1.11-4.35-1.43-6.13h-.09c-.25,1.08-.63,2.69-1.14,4.85-.51,2.15-1.3,4.72-2.38,7.69l-4.28,12.35Z"/>
    <path class="cls-2" d="m524.47,73.71c-1.39.06-2.6.25-3.61.57-1.01.32-1.79,1.03-2.33,2.14-.54,1.11-.81,2.96-.81,5.56v36.38c0,1.71-.03,3.36-.1,4.94-.06,1.58-.16,2.79-.28,3.61,1.01-.13,2.29-.21,3.85-.24,1.55-.03,2.64-.05,3.28-.05v7.31h-27.26v-6.27c1.46-.06,2.67-.25,3.66-.57.98-.32,1.74-1.04,2.28-2.18.54-1.14.81-2.98.81-5.51v-36.38c0-1.71.05-3.36.14-4.94.1-1.58.17-2.79.24-3.61-1.01.06-2.28.11-3.8.14-1.52.03-2.63.08-3.32.14v-7.31h27.26v6.27Z"/>
    <path class="cls-2" d="m529.6,133.94v-6.55c1.77,0,3.2-.51,4.27-1.52,1.08-1.01,1.98-2.34,2.71-3.99.73-1.65,1.44-3.42,2.14-5.32l18.53-50.82h6.65l20.24,51.77c.38.95.89,2.39,1.52,4.32.63,1.93,1.01,3.62,1.14,5.08,1.08-.13,2.1-.21,3.09-.24.98-.03,1.79-.05,2.42-.05v7.31h-25.55v-6.27c1.77,0,2.99-.36,3.66-1.09s.96-1.73.9-2.99c-.06-1.27-.41-2.69-1.04-4.27l-1.9-5.23-20.61.38-1.52,4.46c-.32.82-.78,2.04-1.38,3.66-.6,1.62-1.16,2.96-1.66,4.04,1.01-.13,2.23-.21,3.66-.24,1.43-.03,2.45-.05,3.09-.05v7.6h-20.33Zm20.52-26.6h15.86l-4.37-11.88c-.82-2.28-1.55-4.57-2.18-6.89-.63-2.31-1.11-4.35-1.42-6.13h-.09c-.25,1.08-.63,2.69-1.14,4.85-.51,2.15-1.3,4.72-2.38,7.69l-4.27,12.35Z"/>
  </g>
</svg>